HIERARCHY
ROOT mixamorig:Hips
{
	OFFSET 0.000000 104.274902 0.000000
	CHANNELS 6 Xposition Yposition Zposition Xrotation Yrotation Zrotation
	JOINT mixamorig:Spine
	{
		OFFSET 0.000000 10.181549 0.131524
		CHANNELS 6 Xposition Yposition Zposition Xrotation Yrotation Zrotation
		JOINT mixamorig:Spine1
		{
			OFFSET 0.000000 9.893990 -1.470706
			CHANNELS 3 Xrotation Yrotation Zrotation
			JOINT mixamorig:Spine2
			{
				OFFSET 0.000000 9.220787 -1.370637
				CHANNELS 3 Xrotation Yrotation Zrotation
				JOINT mixamorig:Neck
				{
					OFFSET 0.000000 16.740372 -2.049022
					CHANNELS 6 Xposition Yposition Zposition Xrotation Yrotation Zrotation
					JOINT mixamorig:Head
					{
						OFFSET 0.000000 9.617859 1.684976
						CHANNELS 6 Xposition Yposition Zposition Xrotation Yrotation Zrotation
						JOINT mixamorig:HeadTop_End
						{
							OFFSET 0.000000 22.037384 7.501072
							CHANNELS 6 Xposition Yposition Zposition Xrotation Yrotation Zrotation
							End Site
							{
								OFFSET 0.000000 23.106567 -2.828246
							}
						}
					}
				}
				JOINT mixamorig:RightShoulder
				{
					OFFSET -4.570000 11.014877 -2.160840
					CHANNELS 6 Xposition Yposition Zposition Xrotation Yrotation Zrotation
					JOINT mixamorig:RightArm
					{
						OFFSET -10.592867 -0.524796 -2.232105
						CHANNELS 3 Xrotation Yrotation Zrotation
						JOINT mixamorig:RightForeArm
						{
							OFFSET -27.841497 0.000000 -0.000002
							CHANNELS 3 Xrotation Yrotation Zrotation
							JOINT mixamorig:RightHand
							{
								OFFSET -28.328812 0.000000 -0.000001
								CHANNELS 3 Xrotation Yrotation Zrotation
								JOINT mixamorig:RightHandThumb1
								{
									OFFSET -2.464798 -1.573990 2.681911
									CHANNELS 6 Xposition Yposition Zposition Xrotation Yrotation Zrotation
									JOINT mixamorig:RightHandThumb2
									{
										OFFSET -3.244781 -1.873383 1.873376
										CHANNELS 3 Xrotation Yrotation Zrotation
										JOINT mixamorig:RightHandThumb3
										{
											OFFSET -2.646263 -1.527817 1.527818
											CHANNELS 6 Xposition Yposition Zposition Xrotation Yrotation Zrotation
											JOINT mixamorig:RightHandThumb4
											{
												OFFSET -1.994591 -1.151581 1.151575
												CHANNELS 6 Xposition Yposition Zposition Xrotation Yrotation Zrotation
												End Site
												{
													OFFSET -1.860176 -1.142715 1.365483
												}
											}
										}
									}
								}
								JOINT mixamorig:RightHandIndex1
								{
									OFFSET -9.108299 -0.517883 2.259803
									CHANNELS 6 Xposition Yposition Zposition Xrotation Yrotation Zrotation
									JOINT mixamorig:RightHandIndex2
									{
										OFFSET -3.699997 0.000000 0.000000
										CHANNELS 3 Xrotation Yrotation Zrotation
										JOINT mixamorig:RightHandIndex3
										{
											OFFSET -2.850006 0.000000 0.000000
											CHANNELS 3 Xrotation Yrotation Zrotation
											JOINT mixamorig:RightHandIndex4
											{
												OFFSET -2.772194 0.000000 0.000000
												CHANNELS 3 Xrotation Yrotation Zrotation
												End Site
												{
													OFFSET -2.772202 0.000000 -0.000484
												}
											}
										}
									}
								}
								JOINT mixamorig:RightHandMiddle1
								{
									OFFSET -9.532501 0.000000 -0.000000
									CHANNELS 6 Xposition Yposition Zposition Xrotation Yrotation Zrotation
									JOINT mixamorig:RightHandMiddle2
									{
										OFFSET -3.699997 0.000000 0.000000
										CHANNELS 3 Xrotation Yrotation Zrotation
										JOINT mixamorig:RightHandMiddle3
										{
											OFFSET -2.949997 0.000000 0.000000
											CHANNELS 3 Xrotation Yrotation Zrotation
											JOINT mixamorig:RightHandMiddle4
											{
												OFFSET -2.946594 0.000000 0.000000
												CHANNELS 3 Xrotation Yrotation Zrotation
												End Site
												{
													OFFSET -2.946602 0.000000 -0.000982
												}
											}
										}
									}
								}
								JOINT mixamorig:RightHandRing1
								{
									OFFSET -9.103600 -0.043106 -1.865100
									CHANNELS 6 Xposition Yposition Zposition Xrotation Yrotation Zrotation
									JOINT mixamorig:RightHandRing2
									{
										OFFSET -3.379303 0.000000 0.000000
										CHANNELS 3 Xrotation Yrotation Zrotation
										JOINT mixamorig:RightHandRing3
										{
											OFFSET -2.889694 0.000000 0.000000
											CHANNELS 3 Xrotation Yrotation Zrotation
											JOINT mixamorig:RightHandRing4
											{
												OFFSET -2.638802 0.000000 0.000000
												CHANNELS 3 Xrotation Yrotation Zrotation
												End Site
												{
													OFFSET -2.638802 0.000000 0.004218
												}
											}
										}
									}
								}
								JOINT mixamorig:RightHandPinky1
								{
									OFFSET -8.076698 -0.486725 -3.806299
									CHANNELS 6 Xposition Yposition Zposition Xrotation Yrotation Zrotation
									JOINT mixamorig:RightHandPinky2
									{
										OFFSET -3.600006 0.000000 0.000000
										CHANNELS 3 Xrotation Yrotation Zrotation
										JOINT mixamorig:RightHandPinky3
										{
											OFFSET -2.099998 0.000000 0.000000
											CHANNELS 3 Xrotation Yrotation Zrotation
											JOINT mixamorig:RightHandPinky4
											{
												OFFSET -2.115791 0.000000 0.000000
												CHANNELS 3 Xrotation Yrotation Zrotation
												End Site
												{
													OFFSET -2.115799 0.000000 0.000174
												}
											}
										}
									}
								}
							}
						}
					}
				}
				JOINT mixamorig:LeftShoulder
				{
					OFFSET 4.570400 11.014679 -2.160816
					CHANNELS 6 Xposition Yposition Zposition Xrotation Yrotation Zrotation
					JOINT mixamorig:LeftArm
					{
						OFFSET 10.592373 -0.524597 -2.232116
						CHANNELS 3 Xrotation Yrotation Zrotation
						JOINT mixamorig:LeftForeArm
						{
							OFFSET 27.841488 0.000000 0.000001
							CHANNELS 3 Xrotation Yrotation Zrotation
							JOINT mixamorig:LeftHand
							{
								OFFSET 28.328808 0.000000 -0.000000
								CHANNELS 3 Xrotation Yrotation Zrotation
								JOINT mixamorig:LeftHandThumb1
								{
									OFFSET 2.466103 -1.576202 2.681698
									CHANNELS 6 Xposition Yposition Zposition Xrotation Yrotation Zrotation
									JOINT mixamorig:LeftHandThumb2
									{
										OFFSET 3.243317 -1.872528 1.872530
										CHANNELS 3 Xrotation Yrotation Zrotation
										JOINT mixamorig:LeftHandThumb3
										{
											OFFSET 2.647881 -1.528763 1.528754
											CHANNELS 6 Xposition Yposition Zposition Xrotation Yrotation Zrotation
											JOINT mixamorig:LeftHandThumb4
											{
												OFFSET 1.998924 -1.154083 1.154080
												CHANNELS 6 Xposition Yposition Zposition Xrotation Yrotation Zrotation
												End Site
												{
													OFFSET 1.884041 -1.149155 1.337651
												}
											}
										}
									}
								}
								JOINT mixamorig:LeftHandIndex1
								{
									OFFSET 9.109299 -0.518005 2.259900
									CHANNELS 6 Xposition Yposition Zposition Xrotation Yrotation Zrotation
									JOINT mixamorig:LeftHandIndex2
									{
										OFFSET 3.699997 0.000000 0.000000
										CHANNELS 3 Xrotation Yrotation Zrotation
										JOINT mixamorig:LeftHandIndex3
										{
											OFFSET 2.850006 0.000000 0.000000
											CHANNELS 3 Xrotation Yrotation Zrotation
											JOINT mixamorig:LeftHandIndex4
											{
												OFFSET 2.774895 0.000000 0.000000
												CHANNELS 3 Xrotation Yrotation Zrotation
												End Site
												{
													OFFSET 2.774902 0.000000 -0.000072
												}
											}
										}
									}
								}
								JOINT mixamorig:LeftHandMiddle1
								{
									OFFSET 9.533401 0.000000 0.000000
									CHANNELS 6 Xposition Yposition Zposition Xrotation Yrotation Zrotation
									JOINT mixamorig:LeftHandMiddle2
									{
										OFFSET 3.699997 0.000000 0.000000
										CHANNELS 3 Xrotation Yrotation Zrotation
										JOINT mixamorig:LeftHandMiddle3
										{
											OFFSET 2.949997 0.000000 0.000000
											CHANNELS 3 Xrotation Yrotation Zrotation
											JOINT mixamorig:LeftHandMiddle4
											{
												OFFSET 2.952896 0.000000 0.000000
												CHANNELS 3 Xrotation Yrotation Zrotation
												End Site
												{
													OFFSET 2.952904 0.000000 0.000165
												}
											}
										}
									}
								}
								JOINT mixamorig:LeftHandRing1
								{
									OFFSET 9.104500 -0.042999 -1.865101
									CHANNELS 6 Xposition Yposition Zposition Xrotation Yrotation Zrotation
									JOINT mixamorig:LeftHandRing2
									{
										OFFSET 3.149994 0.000000 0.000000
										CHANNELS 3 Xrotation Yrotation Zrotation
										JOINT mixamorig:LeftHandRing3
										{
											OFFSET 2.950005 0.000000 0.000000
											CHANNELS 3 Xrotation Yrotation Zrotation
											JOINT mixamorig:LeftHandRing4
											{
												OFFSET 2.644302 0.000000 0.000000
												CHANNELS 3 Xrotation Yrotation Zrotation
												End Site
												{
													OFFSET 2.644302 0.000000 0.000083
												}
											}
										}
									}
								}
								JOINT mixamorig:LeftHandPinky1
								{
									OFFSET 8.077805 -0.486893 -3.806302
									CHANNELS 6 Xposition Yposition Zposition Xrotation Yrotation Zrotation
									JOINT mixamorig:LeftHandPinky2
									{
										OFFSET 3.600006 0.000000 0.000000
										CHANNELS 3 Xrotation Yrotation Zrotation
										JOINT mixamorig:LeftHandPinky3
										{
											OFFSET 2.099998 0.000000 0.000000
											CHANNELS 3 Xrotation Yrotation Zrotation
											JOINT mixamorig:LeftHandPinky4
											{
												OFFSET 2.125496 0.000000 0.000000
												CHANNELS 3 Xrotation Yrotation Zrotation
												End Site
												{
													OFFSET 2.125504 0.000000 -0.001254
												}
											}
										}
									}
								}
							}
						}
					}
				}
			}
		}
	}
	JOINT mixamorig:RightUpLeg
	{
		OFFSET -8.207800 -6.751701 -1.599544
		CHANNELS 6 Xposition Yposition Zposition Xrotation Yrotation Zrotation
		JOINT mixamorig:RightLeg
		{
			OFFSET 0.000004 -44.370152 0.345934
			CHANNELS 3 Xrotation Yrotation Zrotation
			JOINT mixamorig:RightFoot
			{
				OFFSET 0.000004 -44.423664 -3.043535
				CHANNELS 3 Xrotation Yrotation Zrotation
				JOINT mixamorig:RightToeBase
				{
					OFFSET 0.000001 -8.728691 10.710592
					CHANNELS 3 Xrotation Yrotation Zrotation
					JOINT mixamorig:RightToe_End
					{
						OFFSET 0.000000 -0.000665 9.278101
						CHANNELS 3 Xrotation Yrotation Zrotation
						End Site
						{
							OFFSET 0.000000 -0.000665 9.278103
						}
					}
				}
			}
		}
	}
	JOINT mixamorig:LeftUpLeg
	{
		OFFSET 8.207800 -6.751701 -1.599544
		CHANNELS 6 Xposition Yposition Zposition Xrotation Yrotation Zrotation
		JOINT mixamorig:LeftLeg
		{
			OFFSET 0.000004 -44.370037 0.346940
			CHANNELS 3 Xrotation Yrotation Zrotation
			JOINT mixamorig:LeftFoot
			{
				OFFSET 0.000004 -44.423611 -3.044388
				CHANNELS 3 Xrotation Yrotation Zrotation
				JOINT mixamorig:LeftToeBase
				{
					OFFSET 0.000001 -8.728690 10.710592
					CHANNELS 3 Xrotation Yrotation Zrotation
					JOINT mixamorig:LeftToe_End
					{
						OFFSET 0.000000 -0.000680 9.278101
						CHANNELS 3 Xrotation Yrotation Zrotation
						End Site
						{
							OFFSET 0.000000 -0.000680 9.278101
						}
					}
				}
			}
		}
	}
}
MOTION
Frames: 4
Frame Time: 0.033333
-0.200140 103.267792 2.203077 -1.354739 -5.119097 0.685695 0.000000 10.181556 0.131524 0.276370 -0.149776 0.041313 -1.199326 -0.064715 -0.167299 -1.199585 -0.061923 -0.165778 -0.000000 16.740374 -2.049022 1.031540 5.023302 2.723186 0.000001 9.617878 1.684978 10.572003 -2.011520 -1.762422 -0.000000 22.037384 7.501077 -0.000001 0.000000 -0.000000 -4.570002 11.014876 -2.160841 1.973933 -0.879068 22.367575 20.255090 24.139835 53.649442 -0.000014 17.586243 0.000010 -39.803938 -13.185024 -4.111991 -2.464799 -1.574001 2.681908 0.608477 -22.198055 -15.090244 10.197871 -22.477785 -2.560788 -2.646279 -1.527807 1.527821 4.489807 -16.881033 -5.905177 -1.994582 -1.151588 1.151575 0.000004 0.000001 -0.000000 -9.108302 -0.517884 2.259803 0.082092 -1.067500 8.795025 0.613219 -2.859906 24.199961 0.111183 -1.240908 10.238405 -0.000001 0.000000 0.000003 -9.532497 0.000001 -0.000000 0.151333 -1.445664 11.951579 0.432205 -2.417613 20.270012 0.229275 -1.774210 14.724672 -0.000000 0.000000 0.000001 -9.103603 -0.043104 -1.865103 0.392229 -2.306519 19.299579 0.427011 -2.403437 20.145906 0.187945 -1.608961 13.325822 -0.000000 0.000000 0.000002 -8.076716 -0.486708 -3.806299 0.642408 -2.923900 24.778483 0.175861 -1.556973 12.887461 0.656359 -2.953878 25.050398 -0.000000 0.000000 0.000002 4.570401 11.014680 -2.160816 0.799933 5.226831 -13.325043 9.579459 -19.737210 -66.247221 0.000008 -14.005488 -0.000006 -13.163112 15.171797 2.329423 2.466085 -1.576193 2.681695 -2.714000 26.879540 11.975039 8.336330 19.247500 2.848091 2.647887 -1.528758 1.528758 0.574431 15.063929 3.784770 1.998928 -1.154069 1.154078 0.000002 0.000002 0.000001 9.109281 -0.518018 2.259900 0.032998 0.674780 -5.600585 0.058404 0.896838 -7.453030 0.067088 0.960880 -7.988711 0.000001 0.000000 0.000000 9.533386 0.000006 0.000001 0.130935 1.339133 -11.169025 0.142099 1.394582 -11.637994 0.104462 1.197326 -9.973052 -0.000001 -0.000000 0.000000 9.104490 -0.042997 -1.865101 0.327335 2.101755 -17.703849 0.220897 1.733524 -14.523798 0.040079 0.743466 -6.172808 0.000000 0.000001 -0.000000 8.077799 -0.486904 -3.806302 2.123569 6.230961 -23.806691 0.298425 -2.047380 -17.391634 0.070455 0.984595 -8.187221 -0.000001 -0.000000 -0.000005 -8.207799 -6.751726 -1.599544 -2.071231 -7.409706 -0.613464 12.565765 3.351303 -1.030568 -9.224233 0.003266 -0.149820 -0.000070 0.000001 0.000000 -0.000000 -0.000000 0.000000 8.207800 -6.751704 -1.599544 1.081417 6.721698 0.777766 8.642383 0.586066 -0.486988 -8.261121 0.139073 -1.149610 -0.360231 0.000002 0.000000 -0.000000 0.000000 0.000000 
-0.203762 103.269180 2.201986 -1.351168 -5.137241 0.686994 -0.000000 10.181554 0.131524 0.280493 -0.154167 0.044562 -1.200654 -0.066431 -0.169523 -1.200923 -0.063603 -0.167958 0.000000 16.740362 -2.049022 1.046678 5.002037 2.785179 -0.000000 9.617837 1.684971 10.479237 -2.064408 -1.761943 -0.000000 22.037354 7.501077 -0.000000 0.000000 0.000000 -4.569997 11.014898 -2.160843 1.978784 -0.864375 22.411008 20.234029 24.034789 53.665572 -0.000011 17.476176 0.000009 -39.767144 -13.169489 -4.111805 -2.464814 -1.573971 2.681911 0.608494 -22.198060 -15.090200 10.197878 -22.477780 -2.560775 -2.646263 -1.527816 1.527810 4.489800 -16.881041 -5.905198 -1.994579 -1.151584 1.151582 0.000002 0.000003 0.000001 -9.108321 -0.517875 2.259803 0.082088 -1.067499 8.795029 0.613244 -2.859906 24.199963 0.111173 -1.240899 10.238402 -0.000000 0.000001 -0.000002 -9.532511 0.000004 0.000000 0.151326 -1.445665 11.951615 0.432247 -2.417617 20.270034 0.229252 -1.774200 14.724657 0.000002 0.000000 0.000001 -9.103603 -0.043109 -1.865101 0.392229 -2.306516 19.299586 0.427009 -2.403444 20.145894 0.187964 -1.608963 13.325804 0.000002 -0.000001 0.000003 -8.076720 -0.486714 -3.806298 0.642398 -2.923901 24.778483 0.175868 -1.556979 12.887457 0.656353 -2.953879 25.050385 -0.000001 -0.000001 0.000001 4.570404 11.014705 -2.160817 0.798369 5.228263 -13.319155 9.621189 -19.717120 -66.242453 -0.000013 -14.086623 0.000003 -13.168498 15.214697 2.338904 2.466090 -1.576187 2.681695 -2.714015 26.879544 11.975051 8.336314 19.247500 2.848109 2.647888 -1.528764 1.528759 0.574441 15.063922 3.784766 1.998918 -1.154066 1.154087 0.000005 0.000004 -0.000000 9.109300 -0.518009 2.259900 0.032998 0.674780 -5.600547 0.058392 0.896838 -7.453047 0.067096 0.960883 -7.988701 0.000001 0.000001 0.000000 9.533392 0.000022 -0.000001 0.130914 1.339133 -11.168997 0.142100 1.394582 -11.637993 0.104462 1.197326 -9.973051 -0.000000 0.000000 -0.000001 9.104493 -0.042993 -1.865101 0.327322 2.101763 -17.703832 0.220903 1.733522 -14.523784 0.040080 0.743465 -6.172809 0.000000 -0.000000 0.000002 8.077794 -0.486889 -3.806303 2.123558 6.230962 -23.806693 0.298429 -2.047377 -17.391629 0.070443 0.984587 -8.187235 -0.000000 -0.000002 -0.000000 -8.207801 -6.751715 -1.599544 -2.070438 -7.398154 -0.606591 12.555591 3.344782 -1.039196 -9.218056 0.002962 -0.146919 -0.000092 -0.000001 0.000000 -0.000000 0.000000 0.000000 8.207800 -6.751699 -1.599544 1.089663 6.730237 0.779719 8.620988 0.600321 -0.493069 -8.250720 0.138811 -1.150219 -0.346559 -0.000001 0.000001 -0.000000 -0.000000 0.000000 
-0.205603 103.274239 2.200857 -1.349718 -5.157849 0.689529 0.000000 10.181560 0.131524 0.284562 -0.158021 0.047526 -1.200480 -0.067910 -0.172373 -1.200755 -0.065070 -0.170773 0.000001 16.740349 -2.049017 1.049464 4.992959 2.825483 -0.000002 9.617836 1.684972 10.439903 -2.070249 -1.734568 -0.000000 22.037354 7.501078 -0.000000 0.000000 -0.000000 -4.570003 11.014846 -2.160837 1.982266 -0.856314 22.439168 20.166313 23.959675 53.728778 -0.000009 17.306482 0.000024 -39.755078 -13.139621 -4.050106 -2.464803 -1.573977 2.681910 0.608495 -22.198057 -15.090203 10.197872 -22.477796 -2.560781 -2.646270 -1.527827 1.527811 4.489817 -16.881033 -5.905178 -1.994601 -1.151595 1.151567 -0.000002 0.000005 0.000001 -9.108315 -0.517884 2.259804 0.082093 -1.067494 8.795025 0.613228 -2.859902 24.199954 0.111171 -1.240903 10.238408 -0.000002 -0.000000 0.000004 -9.532513 -0.000001 -0.000000 0.151328 -1.445663 11.951577 0.432230 -2.417615 20.270010 0.229254 -1.774202 14.724664 0.000000 -0.000001 0.000001 -9.103612 -0.043102 -1.865101 0.392229 -2.306511 19.299577 0.427006 -2.403449 20.145906 0.187968 -1.608961 13.325820 0.000000 0.000000 -0.000000 -8.076735 -0.486692 -3.806299 0.642410 -2.923900 24.778482 0.175848 -1.556971 12.887477 0.656369 -2.953879 25.050390 -0.000001 0.000000 0.000003 4.570405 11.014678 -2.160813 0.796522 5.231157 -13.311841 9.644220 -19.701399 -66.241148 -0.000006 -14.131672 0.000000 -13.162505 15.232223 2.348160 2.466102 -1.576209 2.681696 -2.713996 26.879544 11.975041 8.336307 19.247506 2.848106 2.647876 -1.528764 1.528751 0.574451 15.063938 3.784774 1.998933 -1.154066 1.154085 -0.000002 -0.000002 -0.000004 9.109287 -0.518007 2.259900 0.033001 0.674778 -5.600578 0.058414 0.896837 -7.453009 0.067067 0.960884 -7.988699 0.000001 -0.000000 -0.000002 9.533390 0.000003 -0.000000 0.130920 1.339134 -11.169012 0.142099 1.394582 -11.637998 0.104464 1.197326 -9.973052 0.000000 -0.000000 0.000000 9.104494 -0.043002 -1.865101 0.327331 2.101757 -17.703864 0.220902 1.733521 -14.523803 0.040080 0.743466 -6.172804 0.000001 0.000001 -0.000002 8.077799 -0.486905 -3.806302 2.123554 6.230960 -23.806698 0.298427 -2.047371 -17.391620 0.070458 0.984597 -8.187229 -0.000001 -0.000001 0.000001 -8.207800 -6.751716 -1.599544 -2.044186 -7.395565 -0.602029 12.508084 3.310419 -1.043470 -9.198901 0.002220 -0.139699 -0.000029 -0.000002 0.000001 -0.000000 -0.000000 -0.000000 8.207801 -6.751697 -1.599544 1.121128 6.730996 0.772457 8.557769 0.625970 -0.494127 -8.219183 0.138485 -1.151942 -0.320288 0.000001 -0.000000 -0.000000 0.000000 0.000000 
-0.205387 103.278641 2.200396 -1.348351 -5.179769 0.691587 -0.000000 10.181537 0.131523 0.288089 -0.159656 0.051576 -1.200778 -0.068448 -0.174382 -1.201064 -0.065592 -0.172766 0.000001 16.740360 -2.049022 1.041493 4.992254 2.840585 -0.000000 9.617857 1.684969 10.440433 -2.048090 -1.674210 -0.000000 22.037399 7.501068 -0.000000 0.000000 0.000000 -4.569998 11.014885 -2.160843 1.983276 -0.862523 22.437552 20.058806 23.955751 53.834055 -0.000018 17.066276 0.000023 -39.786279 -13.076056 -3.952958 -2.464814 -1.573992 2.681907 0.608500 -22.198058 -15.090222 10.197868 -22.477791 -2.560809 -2.646262 -1.527810 1.527814 4.489825 -16.881041 -5.905169 -1.994594 -1.151585 1.151569 0.000000 0.000005 0.000001 -9.108309 -0.517882 2.259802 0.082098 -1.067496 8.795013 0.613220 -2.859904 24.199958 0.111177 -1.240906 10.238402 0.000001 -0.000000 0.000000 -9.532520 0.000017 -0.000001 0.151339 -1.445667 11.951595 0.432235 -2.417613 20.270022 0.229249 -1.774196 14.724648 0.000000 -0.000000 -0.000002 -9.103619 -0.043101 -1.865102 0.392232 -2.306516 19.299589 0.427007 -2.403440 20.145884 0.187971 -1.608970 13.325834 0.000001 0.000000 0.000002 -8.076716 -0.486720 -3.806299 0.642427 -2.923897 24.778471 0.175838 -1.556968 12.887459 0.656375 -2.953880 25.050398 0.000000 -0.000001 0.000000 4.570405 11.014681 -2.160817 0.794871 5.234283 -13.305168 9.654999 -19.689612 -66.240971 0.000001 -14.153340 0.000006 -13.148082 15.232444 2.354715 2.466108 -1.576216 2.681700 -2.714009 26.879561 11.975045 8.336310 19.247497 2.848099 2.647888 -1.528767 1.528756 0.574437 15.063924 3.784779 1.998921 -1.154083 1.154087 0.000004 0.000004 0.000001 9.109297 -0.518020 2.259900 0.032984 0.674785 -5.600555 0.058403 0.896834 -7.453019 0.067096 0.960882 -7.988696 -0.000000 0.000000 0.000000 9.533409 0.000003 0.000000 0.130933 1.339134 -11.168988 0.142101 1.394582 -11.637994 0.104464 1.197326 -9.973053 -0.000001 -0.000000 0.000001 9.104508 -0.042998 -1.865101 0.327327 2.101759 -17.703828 0.220880 1.733518 -14.523801 0.040079 0.743465 -6.172808 0.000001 0.000001 -0.000002 8.077825 -0.486904 -3.806300 2.123558 6.230963 -23.806686 0.298421 -2.047374 -17.391642 0.070447 0.984584 -8.187209 -0.000000 -0.000001 -0.000000 -8.207801 -6.751714 -1.599544 -2.017667 -7.397479 -0.600324 12.464004 3.267502 -1.044367 -9.183725 0.001352 -0.131635 -0.000004 -0.000001 0.000000 -0.000000 -0.000000 0.000000 8.207800 -6.751701 -1.599544 1.149572 6.725382 0.761414 8.502093 0.658900 -0.489707 -8.192075 0.138744 -1.155611 -0.303291 0.000001 0.000000 0.000000 0.000000 0.000000 
